<?xml version="1.0" standalone="no"?>
<!DOCTYPE svg PUBLIC "-//W3C//DTD SVG 20010904//EN"
 "http://www.w3.org/TR/2001/REC-SVG-20010904/DTD/svg10.dtd">
<svg version="1.0" xmlns="http://www.w3.org/2000/svg"
 width="491.000000pt" height="491.000000pt" viewBox="0 0 491.000000 491.000000"
 preserveAspectRatio="xMidYMid meet">
<metadata>
Created by potrace 1.11, written by Peter Selinger 2001-2013
</metadata>
<g transform="translate(0.000000,491.000000) scale(0.100000,-0.100000)"
fill="#000000" stroke="none">
<path d="M2415 4891 c-3 -6 -4 -57 -3 -115 2 -91 0 -108 -17 -126 -16 -18 -17
-26 -8 -61 9 -33 8 -42 -3 -46 -22 -8 -17 -76 7 -107 11 -14 19 -36 17 -48 -3
-21 -6 -19 -29 17 -32 49 -55 69 -69 60 -12 -7 -7 -31 16 -82 8 -18 14 -45 13
-60 -1 -15 0 -34 2 -42 5 -18 -135 -78 -213 -91 -34 -5 -65 -15 -70 -22 -14
-23 -4 -42 29 -50 31 -8 46 -30 52 -78 0 -5 12 -10 26 -10 34 0 32 -20 -2 -21
-16 -1 -32 -1 -37 0 -5 1 -21 -1 -37 -4 -22 -5 -27 -11 -24 -28 3 -12 16 -32
30 -44 14 -12 25 -27 25 -34 0 -6 9 -26 20 -44 11 -17 18 -42 15 -54 -3 -16 2
-24 22 -32 14 -5 32 -8 41 -7 9 2 18 -4 20 -14 2 -11 -15 -25 -63 -47 -36 -17
-68 -38 -71 -46 -10 -26 4 -59 40 -95 20 -19 36 -38 36 -43 0 -17 -128 -65
-178 -66 -14 -1 -26 -10 -32 -26 -8 -21 -16 -25 -52 -25 -83 0 -130 -50 -68
-71 22 -8 28 -15 21 -22 -15 -15 -14 -54 1 -63 7 -5 24 -7 38 -6 23 2 26 -2
26 -33 0 -46 15 -61 44 -45 36 19 45 -3 15 -38 -20 -24 -23 -33 -13 -41 7 -6
28 -22 46 -37 43 -35 42 -61 -2 -69 -21 -4 -36 -14 -39 -25 -6 -24 2 -34 41
-54 38 -20 39 -26 9 -54 -24 -23 -27 -23 -122 1 -142 35 -159 31 -128 -32 18
-36 19 -43 6 -61 -11 -16 -12 -24 -3 -35 15 -18 4 -35 -23 -35 -45 0 -58 -25
-39 -73 15 -36 15 -60 0 -75 -9 -9 -9 -18 0 -37 10 -22 18 -25 61 -25 27 0 53
-4 56 -10 3 -5 18 -10 33 -10 41 0 59 -15 46 -37 -19 -31 -71 -61 -101 -57
-87 12 -107 11 -138 -2 -40 -16 -45 -36 -14 -57 25 -18 16 -25 -50 -41 -34 -9
-49 -19 -59 -39 -12 -24 -11 -30 7 -53 14 -18 18 -34 15 -54 -11 -52 49 -62
88 -15 17 20 17 20 18 -8 0 -16 5 -27 13 -26 23 3 37 -1 37 -10 0 -5 -44 -10
-97 -11 -263 -6 -343 -17 -343 -46 0 -8 15 -16 40 -20 37 -6 41 -9 46 -45 4
-21 15 -49 25 -60 11 -12 19 -32 19 -45 0 -13 10 -30 21 -38 23 -16 49 -11 49
9 0 21 25 36 37 24 6 -6 9 -17 7 -24 -7 -17 15 -31 58 -39 29 -5 39 -3 46 10
9 17 11 17 27 1 9 -9 21 -17 26 -17 13 0 11 -26 -4 -38 -6 -6 -55 -12 -108
-14 -70 -3 -104 -9 -124 -22 -37 -25 -29 -50 18 -54 32 -3 36 -6 27 -21 -5
-10 -7 -21 -3 -24 3 -4 -1 -17 -10 -30 -10 -15 -12 -28 -7 -33 6 -6 -17 -9
-58 -9 -100 2 -272 -46 -272 -75 0 -10 56 -30 64 -23 3 3 12 3 21 -1 12 -4 14
-10 7 -23 -12 -21 5 -63 25 -63 7 0 16 -7 20 -15 3 -9 19 -23 36 -32 30 -15
31 -15 59 18 25 31 27 32 28 12 0 -12 3 -28 6 -37 4 -10 0 -15 -13 -15 -10 0
-45 -7 -78 -15 -37 -9 -96 -14 -155 -12 -102 2 -136 -6 -143 -35 -6 -22 17
-37 64 -43 44 -4 57 -30 34 -72 -26 -48 -15 -67 35 -59 32 5 40 4 40 -8 0 -8
15 -22 32 -30 31 -15 34 -15 53 2 11 10 31 21 45 24 14 3 43 12 64 20 30 11
44 12 57 4 14 -9 22 -7 37 6 10 9 32 17 48 17 16 0 40 7 52 16 14 10 50 17
100 19 l77 3 -55 -28 c-30 -16 -62 -29 -70 -30 -8 0 -42 -14 -74 -30 -32 -17
-73 -30 -91 -30 -34 0 -151 -20 -267 -46 -54 -12 -68 -19 -68 -34 0 -10 9 -22
21 -25 29 -10 39 -43 23 -81 -18 -44 -7 -54 57 -54 17 0 28 -4 24 -10 -11 -18
-79 -23 -140 -11 -33 7 -82 13 -109 14 -40 2 -50 -2 -66 -23 -11 -14 -20 -38
-20 -53 0 -26 2 -28 34 -22 48 9 78 -2 71 -25 -3 -10 -1 -21 5 -25 7 -5 9 -20
6 -41 -6 -27 -3 -35 15 -44 16 -9 27 -9 44 0 20 10 26 9 44 -9 l22 -22 62 49
c63 50 124 82 158 82 13 0 24 -13 35 -40 16 -40 39 -51 60 -30 31 31 76 -48
46 -82 -17 -20 -19 -65 -5 -79 6 -6 25 -12 43 -14 19 -3 37 -8 42 -13 7 -7 13
-43 17 -94 0 -9 10 -20 21 -23 11 -4 20 -15 20 -26 0 -43 44 -32 64 15 3 7 10
4 20 -7 17 -21 50 -18 123 14 33 14 45 15 48 6 2 -6 8 -25 13 -42 5 -16 15
-30 23 -30 19 0 23 49 9 112 -24 109 -9 160 30 110 12 -15 31 -27 45 -27 37 0
48 -23 29 -57 -26 -44 -13 -66 33 -57 21 3 51 12 66 20 24 11 29 11 34 -2 3
-7 12 -14 19 -14 8 0 17 -13 21 -30 5 -30 34 -42 48 -20 18 28 22 3 7 -46 -14
-52 -14 -58 1 -69 25 -18 144 -19 171 -1 20 13 23 24 25 93 1 42 4 79 6 81 2
3 20 -6 39 -17 30 -19 35 -28 34 -56 -2 -59 45 -88 75 -45 23 33 46 15 49 -38
4 -60 28 -68 57 -21 18 29 21 31 26 13 15 -49 31 -69 55 -69 22 0 25 5 26 35
1 19 2 40 3 46 2 17 66 48 85 41 9 -4 16 -18 16 -33 0 -22 3 -25 22 -21 17 5
29 -2 50 -26 23 -27 29 -30 37 -17 6 8 9 22 7 30 -2 8 -7 33 -10 55 -6 35 -5
38 7 22 19 -23 43 -22 50 3 8 32 42 24 86 -20 36 -36 61 -50 61 -35 0 3 -9 23
-20 45 -16 32 -18 44 -9 64 8 17 8 41 1 83 -10 61 -5 75 27 66 9 -3 25 -19 36
-36 26 -40 43 -44 55 -13 14 38 57 45 84 13 50 -59 123 -74 114 -23 -4 22 -2
23 32 19 24 -4 51 1 76 13 21 11 57 19 79 19 39 0 40 1 43 37 4 47 23 62 77
59 28 -1 48 4 59 14 20 21 21 51 1 59 -31 12 -272 31 -379 30 -67 0 -76 1 -61
12 10 8 22 11 27 8 13 -8 22 25 10 39 -5 6 -12 25 -14 42 -3 26 2 32 35 48 46
21 39 37 -23 56 -22 6 -40 16 -40 22 0 5 -16 17 -35 25 -34 14 -51 44 -43 78
2 12 11 10 47 -14 34 -23 55 -30 93 -30 26 0 49 1 51 2 1 2 13 -5 27 -15 31
-21 44 -22 36 -1 -7 19 26 94 52 117 10 9 33 17 51 19 39 3 48 14 28 36 -8 9
-18 27 -21 40 -4 12 -10 22 -14 23 -4 0 -16 2 -27 4 -19 4 -99 10 -254 20 -78
5 -99 20 -53 37 32 12 41 31 22 43 -6 4 12 18 39 33 28 14 53 34 56 43 7 20
-10 59 -25 59 -6 0 -10 7 -10 15 0 8 8 15 18 15 24 0 42 19 42 46 0 30 -15 33
-72 17 -41 -12 -51 -12 -77 1 -40 21 -103 42 -184 60 -38 9 -92 27 -120 40
-29 14 -65 30 -81 36 -27 10 -28 11 -11 30 21 23 16 54 -10 59 -39 7 -66 21
-60 31 3 6 15 6 30 0 13 -5 46 -10 74 -11 58 -3 64 -6 80 -36 8 -16 21 -23 41
-23 31 0 39 7 45 42 11 54 36 47 66 -17 23 -49 44 -51 54 -4 7 32 22 36 51 14
46 -35 86 -6 61 44 -9 19 -10 34 -3 54 10 26 13 28 46 21 48 -10 72 -7 81 8
15 23 4 33 -42 39 -24 4 -60 12 -79 18 -44 15 -167 15 -220 1 -28 -8 -58 -7
-105 1 -70 12 -85 26 -32 31 26 2 32 7 31 27 -1 17 7 27 33 37 18 8 33 19 33
24 0 15 -33 45 -78 70 -51 29 -58 47 -30 69 33 27 18 51 -32 51 -40 0 -54 15
-25 26 10 4 15 20 15 50 0 50 6 53 45 22 26 -20 28 -21 41 -4 7 10 10 24 8 30
-7 19 19 36 43 30 13 -4 27 -22 38 -50 9 -24 20 -44 25 -44 13 0 30 26 22 35
-4 4 10 5 31 1 36 -7 37 -6 37 23 0 16 -4 33 -10 36 -5 3 -10 15 -10 26 0 14
7 19 28 19 45 0 72 11 72 30 0 36 -24 42 -197 45 -160 3 -197 6 -253 25 -14 4
-34 11 -44 14 -18 6 -16 9 12 26 18 11 41 20 51 20 10 0 23 11 29 25 6 14 16
25 21 25 25 0 58 -24 75 -53 17 -31 18 -31 32 -12 8 11 24 19 34 17 11 -2 20
0 21 5 0 4 2 16 4 25 2 9 -3 28 -11 43 -21 40 -18 44 24 39 34 -4 40 -1 50 21
9 20 9 26 -1 29 -6 2 -42 13 -79 25 -36 13 -79 22 -95 20 -48 -4 -61 0 -68 19
-3 11 -24 25 -46 32 -82 27 -112 73 -68 103 14 11 20 23 17 43 -3 27 0 29 47
39 70 14 81 22 59 46 -12 13 -31 19 -59 19 -48 0 -72 25 -78 80 -2 17 -8 35
-13 40 -6 6 -44 11 -87 13 -42 2 -80 6 -84 10 -4 4 3 15 16 23 12 9 20 22 17
30 -8 21 11 26 49 13 31 -12 36 -11 50 7 8 10 15 34 15 52 0 18 7 40 15 48 9
9 13 25 9 38 -4 18 3 29 30 50 56 42 63 108 9 83 -20 -9 -27 -9 -30 0 -2 6
-13 21 -23 33 -20 23 -20 23 15 61 40 45 44 61 13 54 -13 -2 -36 -8 -51 -11
-19 -5 -34 -1 -48 12 -11 10 -30 19 -42 21 -12 2 -32 17 -45 33 -13 17 -32 30
-42 30 -26 0 -39 28 -31 66 0 3 22 -6 47 -21 25 -15 48 -24 51 -22 2 3 6 37 7
76 1 63 4 73 31 101 25 26 27 33 15 40 -8 5 -20 10 -26 10 -7 0 -19 12 -29 26
-16 25 -16 28 1 59 21 40 14 63 -21 63 -15 0 -34 6 -42 15 -14 14 -14 17 1 32
9 9 17 26 17 38 2 41 4 45 26 63 40 34 31 121 -11 109 -6 -2 -42 -13 -79 -25
-39 -13 -73 -18 -78 -13 -5 5 3 31 18 61 18 38 23 56 15 64 -7 7 -15 1 -26
-21 -22 -42 -37 -39 -24 5 12 43 3 84 -17 84 -8 0 -15 -5 -15 -11 0 -5 -4 -8
-9 -4 -6 3 -8 15 -5 28 7 35 7 115 -1 127 -5 8 -11 8 -21 -1 -12 -10 -14 6
-14 105 0 135 1 126 -11 149 -11 19 -25 22 -34 8z m380 -2121 c3 -6 -5 -10
-19 -10 -27 0 -41 14 -31 30 7 11 39 -2 50 -20z m59 4 c22 -8 20 -23 -1 -19
-10 2 -24 4 -31 4 -7 1 -10 6 -7 11 7 12 17 12 39 4z"/>
</g>
</svg>
