<svg xmlns="http://www.w3.org/2000/svg" viewBox="0 0 570 77.4"><defs><style>.cls-1{fill:#b11116;}</style></defs><title>Asset 5</title><g id="Layer_2" data-name="Layer 2"><g id="Layer_3" data-name="Layer 3"><rect y="62.73" width="570" height="14.67"/><path d="M72,12.3H54.29V55.4H40.6V12.3H22.92V0H72Z"/><path d="M128.19,0V55.4H114.5V34.62H91.93V55.4H78.17V0H91.93V22.24H114.5V0Z"/><path d="M151.74,12v10.1h24.6V33.81h-24.6v9.61h28.11v12H138V0h41.88V12Z"/><path d="M244.46,55.4,234,39.35H223.44v16H209.67V0h24.2c13.77,0,23,7.49,23,19.47A18.53,18.53,0,0,1,247.47,36l13,19.39Z"/><path class="cls-1" d="M243.08,19.47c0,4.57-4.15,7.5-9.45,7.5H223.45V12.14h10.18C238.93,12.14,243.08,15,243.08,19.47Z"/><path d="M279.42,12v10.1H304V33.81h-24.6v9.61h28.11v12H265.65V0h41.88V12Z"/><path d="M367.49,27.54C367.49,44,355,55.4,337.59,55.4H315.35V0h22.24C355,0,367.49,11.32,367.49,27.54Zm-13.93,0c0-8.56-6.92-15.16-16-15.16h-8.47V43h8.47C346.64,43,353.56,36.33,353.56,27.54Z"/><path d="M411.74,12v10.1h24.61V33.81H411.74v9.61h28.11v12H398V0h41.87V12Z"/><path d="M499.82,0,478,38.7V55.4H464.14V38.7L442.22,0h15.24L471,24.11,484.58,0Z"/><path d="M519,12v10.1h24.61V33.81H519v9.61h28.11v12H505.2V0h41.88V12Z"/></g></g></svg>