<svg xmlns="http://www.w3.org/2000/svg" viewBox="0 0 191.08 210.86"><defs><style>.cls-1{fill:#b11116;}</style></defs><title>Asset 6</title><g id="Layer_2" data-name="Layer 2"><g id="Layer_3" data-name="Layer 3"><polygon points="191.08 0 191.08 210.86 0 210.86 0 196.19 176.45 196.19 176.45 0 191.08 0"/><path d="M54,12.3H36.37V55.4H22.68V12.3H5V0H54Z"/><path d="M110.27,0V55.4H96.58V34.62H74V55.4H60.24V0H74V22.24H96.58V0Z"/><path d="M133.82,12v10.1h24.6V33.81h-24.6v9.61h28.11v12H120.05V0h41.88V12Z"/><path d="M47.61,122.79,37.1,106.74H26.59v16.05H12.82V67.39H37c13.77,0,23,7.5,23,19.48a18.51,18.51,0,0,1-9.37,16.53l13,19.39Z"/><path class="cls-1" d="M46.23,86.87c0,4.56-4.15,7.5-9.45,7.5H26.59V79.54H36.78C42.08,79.54,46.23,82.39,46.23,86.87Z"/><path d="M82.57,79.37v10.1h24.6V101.2H82.57v9.62h28.11v12H68.8V67.39h41.88v12Z"/><path d="M170.64,94.93c0,16.46-12.46,27.86-29.9,27.86H118.5V67.39h22.24C158.18,67.39,170.64,78.72,170.64,94.93Zm-13.93,0c0-8.55-6.92-15.15-16-15.15h-8.47v30.63h8.47C149.79,110.41,156.71,103.73,156.71,94.93Z"/><path d="M26.59,146.77v10.1h24.6V168.6H26.59v9.61H54.7v12H12.82v-55.4H54.7v12Z"/><path d="M114.67,134.79l-21.84,38.7v16.7H79v-16.7l-21.91-38.7H72.3L85.83,158.9l13.6-24.11Z"/><path d="M133.82,146.77v10.1h24.6V168.6h-24.6v9.61h28.11v12H120.05v-55.4h41.88v12Z"/></g></g></svg>