<svg xmlns="http://www.w3.org/2000/svg" viewBox="0 0 1000 78.18"><defs><style>.cls-1{fill:#b11116;}</style></defs><title>Asset 3</title><g id="Layer_2" data-name="Layer 2"><g id="Layer_3" data-name="Layer 3"><rect y="63.36" width="1000" height="14.81"/><path d="M142.36,12.43H124.5V56H110.67V12.43H92.82V0h49.54Z"/><path d="M199.15,0V56H185.32V35H162.53V56H148.62V0h13.91V22.46h22.79V0Z"/><path d="M222.94,12.1V22.3h24.85V34.15H222.94v9.71h28.39V56H209V0h42.3V12.1Z"/><path d="M316.59,56,306,39.75H295.36V56h-13.9V0H305.9c13.9,0,23.2,7.57,23.2,19.67a18.72,18.72,0,0,1-9.46,16.7L332.81,56Z"/><path class="cls-1" d="M315.2,19.67c0,4.61-4.19,7.57-9.54,7.57H295.37v-15h10.29C311,12.26,315.2,15.14,315.2,19.67Z"/><path d="M351.91,12.1V22.3h24.85V34.15H351.91v9.71H380.3V56H338V0h42.3V12.1Z"/><path d="M440.87,27.81c0,16.63-12.59,28.15-30.2,28.15H388.21V0h22.46C428.28,0,440.87,11.44,440.87,27.81Zm-14.07,0c0-8.64-7-15.3-16.13-15.3h-8.56V43.45h8.56C419.81,43.45,426.8,36.7,426.8,27.81Z"/><path d="M485.57,12.1V22.3h24.85V34.15H485.57v9.71H514V56h-42.3V0H514V12.1Z"/><path d="M574.53,0l-22,39.09V56h-14V39.09L516.35,0h15.39L545.4,24.36,559.14,0Z"/><path d="M593.88,12.1V22.3h24.85V34.15H593.88v9.71h28.39V56H580V0h42.3V12.1Z"/></g></g></svg>